<?xml version="1.0" encoding="UTF-8"?>
<svg id="Capa_2" data-name="Capa 2" xmlns="http://www.w3.org/2000/svg" xmlns:xlink="http://www.w3.org/1999/xlink" viewBox="0 0 82.93 136.18">
  <defs>
    <style>
      .cls-1 {
        fill: #e61e3b;
      }

      .cls-2 {
        fill: #ef5a30;
      }

      .cls-3 {
        fill: #1c9db1;
      }

      .cls-4 {
        fill: #02a9cd;
      }

      .cls-5 {
        fill: #fff;
      }

      .cls-6 {
        fill: #d81e45;
      }

      .cls-7 {
        fill: #15b9d4;
      }

      .cls-8 {
        fill: #ffc210;
      }

      .cls-9 {
        fill: #f79423;
      }

      .cls-10 {
        fill: #17aab7;
      }

      .cls-11 {
        fill: #f04138;
      }

      .cls-12 {
        fill: #18aab5;
      }

      .cls-13 {
        fill: #17aeb9;
      }

      .cls-14 {
        fill: #03a9cd;
      }

      .cls-15 {
        clip-path: url(#clippath-2);
      }

      .cls-16 {
        fill: #fbb41b;
      }

      .cls-17 {
        fill: #1ba5b2;
      }

      .cls-18 {
        clip-path: url(#clippath-1);
      }

      .cls-19 {
        fill: #ee1d3c;
      }

      .cls-20 {
        fill: #f2702a;
      }

      .cls-21 {
        fill: #1ca8af;
      }

      .cls-22 {
        fill: #59caea;
      }

      .cls-23 {
        fill: #178fa7;
      }

      .cls-24 {
        fill: #f8a11e;
      }

      .cls-25 {
        fill: #fcb316;
      }

      .cls-26 {
        clip-path: url(#clippath);
      }

      .cls-27 {
        fill: #f99421;
      }

      .cls-28 {
        fill: #f79c1f;
      }

      .cls-29 {
        fill: #dc3726;
      }

      .cls-30 {
        fill: none;
      }

      .cls-31 {
        fill: #ef4457;
      }

      .cls-32 {
        clip-path: url(#clippath-3);
      }

      .cls-33 {
        fill: #178daa;
      }

      .cls-34 {
        fill: #f89424;
      }

      .cls-35 {
        fill: #f58320;
      }

      .cls-36 {
        fill: #fec313;
      }

      .cls-37 {
        fill: #f11b3d;
      }

      .cls-38 {
        fill: #ea1d3e;
      }

      .cls-39 {
        fill: #8e1832;
      }

      .cls-40 {
        fill: #ee1d46;
      }

      .cls-41 {
        fill: #ee484c;
      }

      .cls-42 {
        fill: #f79b22;
      }

      .cls-43 {
        fill: #15b9d3;
      }

      .cls-44 {
        fill: #ee2039;
      }

      .cls-45 {
        fill: #f37329;
      }
    </style>
    <clipPath id="clippath">
      <path class="cls-30" d="M10.47,70.49c3.64-11.05,6.21-21.95,7.06-32.6l22.93-10.77,23.38,10.83c1.57,11.66,3.95,22.45,6.98,32.54-17.03,16.11-24.23,39.05-28.15,64.28h-1.04v-55.82h-1.83v56.06h-1.04c-5.34-30.23-13.6-54.23-28.28-64.53Z"/>
    </clipPath>
    <clipPath id="clippath-1">
      <path class="cls-39" d="M74,61.39l3.01-9.22c-.7-.47-1.17-1.28-1.17-2.19,0-1.08,.65-2.01,1.59-2.41V22.09l2.08-1.65,.05,27.15c.9,.41,1.53,1.33,1.53,2.39,0,.87-.42,1.64-1.08,2.12l2.92,9.29h-8.93Z"/>
    </clipPath>
    <clipPath id="clippath-2">
      <path class="cls-30" d="M15.06,28.4v-7.16c19.9-5.48,37.43-5.86,51.59,.98v6.61s15.18-8.45,15.18-8.45L41.13,0,7.95,16.21,0,20.09l15.06,8.31Z"/>
    </clipPath>
    <clipPath id="clippath-3">
      <path class="cls-30" d="M17.85,35.76v-12.49c19.43-4.61,34.49-4.09,45.86,.73v11.75s-22.93-10.93-22.93-10.93l-22.93,10.93Z"/>
    </clipPath>
  </defs>
  <g id="Capa_1-2" data-name="Capa 1">
    <g class="cls-26">
      <path class="cls-44" d="M68.33,50.58l5.08,15.03-23.53-7.29,11.29-7.74h7.16Z"/>
      <polygon class="cls-45" points="29.38 37.33 15.36 46.09 16.1 38.13 29.38 37.33"/>
      <polygon class="cls-39" points="67.51 54.16 60.82 51.33 66.63 46.65 67.51 54.16"/>
      <polygon class="cls-19" points="57.76 40.99 63.24 37.18 68.08 46.58 57.96 53.55 53.1 45.6 57.76 40.99"/>
      <polygon class="cls-29" points="15.36 47.4 23.07 49.86 28.37 37.7 14.44 45.81 15.36 47.4"/>
      <polygon class="cls-40" points="68.36 62.12 72.2 73.87 68.65 75.18 48.93 57.05 68.36 62.12"/>
      <polygon class="cls-6" points="55.16 48.62 50.62 58.67 61.17 51.34 55.16 48.62"/>
      <path class="cls-11" d="M57.1,34.4l6.3,2.51-7.77,12.49-29.19-11.38,30.66-3.61Z"/>
      <polygon class="cls-25" points="40.46 27.11 28.59 32.69 26.98 38.41 62.92 36.91 41.62 26.32 40.46 27.11"/>
      <polygon class="cls-13" points="23.2 48.75 16.22 66.41 34.95 68.73 23.2 48.75"/>
      <polygon class="cls-43" points="14.44 52.24 23.26 49.54 12.03 65.7 14.44 52.24"/>
      <polygon class="cls-27" points="20.14 82.16 22.42 80.42 25.01 89.34 20.14 82.16"/>
      <polygon class="cls-10" points="14.99 52.39 22.77 49.76 15.64 47.49 14.99 52.39"/>
      <polygon class="cls-43" points="15.36 66.01 18.18 66.25 22.54 81.06 19.62 82.78 10.07 71.33 15.36 66.01"/>
      <polygon class="cls-14" points="35.89 68.12 17.64 65.61 22.01 81.38 38.42 70.69 35.89 68.12"/>
      <polygon class="cls-43" points="40.25 84.24 22.18 81.06 37.3 71.42 40.46 78.16 40.25 84.24"/>
      <polygon class="cls-23" points="22.54 81.06 25.09 90.09 28.03 96.73 45.32 84.83 22.54 81.06"/>
      <polygon class="cls-3" points="22.77 49.76 16.35 66.42 10.47 71.03 11.72 65.18 22.77 49.76"/>
      <polygon class="cls-12" points="40.21 88.01 27.57 96.92 40.46 106.83 40.21 88.01"/>
      <polygon class="cls-7" points="42.86 77.05 45.27 85.55 40.91 85.17 40.64 77.26 42.86 77.05"/>
      <polygon class="cls-21" points="59.83 75.4 62.18 81.77 57.47 89.17 59.4 74.58 59.83 75.4"/>
      <polygon class="cls-33" points="59.46 75.86 67.4 74.16 61.73 82.48 59.46 75.86"/>
      <polygon class="cls-23" points="41.21 84.11 45.61 84.85 41.03 87.78 41.21 84.11"/>
      <polygon class="cls-4" points="43.05 77.71 44.92 84.88 58.33 76.04 46.72 77.83 44.23 75.99 43.05 77.71"/>
      <polygon class="cls-20" points="41.03 106.13 49.27 111.94 48.26 116.22 40.64 117.17 41.03 106.13"/>
      <polygon class="cls-20" points="34.01 118.22 40.46 117.45 40.46 106.39 28.21 96.93 34.01 118.22"/>
      <polygon class="cls-34" points="46.55 116.13 45.12 122.01 41.04 124.79 40.91 116.96 46.55 116.13"/>
      <polygon class="cls-34" points="34.37 117.85 39.78 117.53 39.78 125.96 36.17 128.83 34.37 117.85"/>
      <polygon class="cls-36" points="45.61 121.37 40.64 124.96 41.15 135.24 44.41 135.87 45.61 121.37"/>
      <polygon class="cls-8" points="40.27 125.5 36.29 128.62 37.73 134.13 40.27 134.89 40.27 125.5"/>
      <polygon class="cls-40" points="22.54 49.15 34.95 68.73 50.66 58.57 22.54 49.15"/>
      <path class="cls-2" d="M50.66,58.57l-27.89-8.81,4.84-11.38,23.06,20.2Z"/>
      <polygon class="cls-44" points="25.64 37.33 50.66 58.57 57.22 46.84 25.64 37.33"/>
      <polygon class="cls-6" points="50.41 58.29 46.7 77.95 34.78 68.47 50.41 58.29"/>
      <polygon class="cls-34" points="16.22 38.99 27.6 38.37 35.09 29.11 15.36 37.7 16.22 38.99"/>
      <polygon class="cls-17" points="45.12 84.97 40.91 87.86 41.23 106.83 48.41 112.23 50.31 104.45 45.12 84.97"/>
      <polygon class="cls-22" points="58.29 75.75 44.49 84.24 50.7 105.62 57.8 87.46 59.67 74.97 58.29 75.75"/>
      <polygon class="cls-31" points="50.22 57.71 46.7 77.95 69.26 74.48 50.22 57.71"/>
    </g>
    <circle class="cls-5" cx="40.77" cy="73.8" r="5.28"/>
    <circle class="cls-8" cx="38.48" cy="134.85" r="1.33"/>
    <circle class="cls-36" cx="42.94" cy="134.85" r="1.33"/>
    <rect class="cls-5" x="34.03" y="44.46" width="6.43" height="6.43"/>
    <rect class="cls-5" x="42.2" y="44.46" width="6.43" height="6.43"/>
    <rect class="cls-5" x="34.03" y="52.82" width="6.43" height="6.43"/>
    <rect class="cls-5" x="42.2" y="52.82" width="6.43" height="6.43"/>
    <g>
      <path class="cls-39" d="M74,61.39l3.01-9.22c-.7-.47-1.17-1.28-1.17-2.19,0-1.08,.65-2.01,1.59-2.41V22.09l2.08-1.65,.05,27.15c.9,.41,1.53,1.33,1.53,2.39,0,.87-.42,1.64-1.08,2.12l2.92,9.29h-8.93Z"/>
      <g class="cls-18">
        <polygon class="cls-37" points="76.21 40.59 83.49 36.31 82.65 19.01 73.66 24.92 76.21 40.59"/>
        <polygon class="cls-38" points="74 56.03 85.31 60.72 84.4 63.23 70.81 63.23 74 56.03"/>
      </g>
    </g>
    <g class="cls-15">
      <polygon class="cls-9" points="32.93 15.97 39.66 12.76 44.77 18.42 33.81 18.42 32.93 15.97"/>
      <polygon class="cls-20" points="4.59 15.53 24.22 13.08 43.64 -1.29 42.46 .67 40.91 14.18 15.08 28.58 -2.51 18.75 4.59 15.53"/>
      <polygon class="cls-35" points="42.06 .47 23.44 14.41 22.86 8.93 41.13 0 42.06 .47"/>
      <polygon class="cls-9" points="23.44 14.41 22.86 8.93 7.95 16.21 23.44 14.41"/>
      <polygon class="cls-24" points="16.29 12.13 23.44 14.41 23.44 7.47 16.29 12.13"/>
      <polygon class="cls-24" points="36.17 10.62 43.88 17.5 54.69 3.09 42.48 -.15 36.17 10.62"/>
      <polygon class="cls-28" points="53 4.01 41.04 18.54 61.2 21.27 59.58 5.97 53 4.01"/>
      <polygon class="cls-35" points="74.58 14.93 66.93 30.17 59.4 20.09 59.4 7.34 74.58 14.93"/>
      <polygon class="cls-1" points="79.14 17.81 82.81 19.89 73.06 28.13 73.51 21.85 79.14 17.81"/>
      <polygon class="cls-41" points="80.75 17.44 72.59 26.5 67.14 28.97 73.85 14.24 80.75 17.44"/>
    </g>
    <g class="cls-32">
      <polygon class="cls-16" points="40.91 18.91 46.51 18.91 62.06 35.76 40.39 26.32 34.7 29.32 40.91 18.91"/>
      <polygon class="cls-35" points="62.86 35.76 64.94 36.94 64.48 24.11 60.19 22.52 62.86 35.76"/>
      <polygon class="cls-24" points="61.59 22.01 63.26 36.54 51.92 27.73 43.6 18.71 61.59 22.01"/>
      <polygon class="cls-20" points="16.65 27.93 30.76 19.84 17.26 21.6 16.65 27.93"/>
      <polygon class="cls-9" points="17.48 26.7 17.2 36.09 27.78 31.03 26.62 22.21 17.48 26.7"/>
      <polygon class="cls-42" points="24.6 20.09 26.44 32.8 36.54 27.54 42.78 18.42 24.6 20.09"/>
    </g>
  </g>
</svg>