<?xml version="1.0" encoding="utf-8"?>
<!-- Generator: Adobe Illustrator 25.4.1, SVG Export Plug-In . SVG Version: 6.00 Build 0)  -->
<svg version="1.1" id="Capa_2_00000052793370243951711940000017586000096964218795_"
	 xmlns="http://www.w3.org/2000/svg" xmlns:xlink="http://www.w3.org/1999/xlink" x="0px" y="0px" viewBox="0 0 908.2 136.2"
	 style="enable-background:new 0 0 908.2 136.2;" xml:space="preserve">
<style type="text/css">
	.st0{clip-path:url(#SVGID_00000170279648530015120950000003222578302504925095_);}
	.st1{fill:#616161;}
	.st2{fill:#919191;}
	.st3{fill:#3E3E3E;}
	.st4{fill:#5F5F5F;}
	.st5{fill:#676767;}
	.st6{fill:#606060;}
	.st7{fill:#5A5A5A;}
	.st8{fill:#757575;}
	.st9{fill:#B8B8B8;}
	.st10{fill:#828282;}
	.st11{fill:#8B8B8B;}
	.st12{fill:#A6A6A6;}
	.st13{fill:#7F7F7F;}
	.st14{fill:#7B7B7B;}
	.st15{fill:#6E6E6E;}
	.st16{fill:#797979;}
	.st17{fill:#6D6D6D;}
	.st18{fill:#8F8F8F;}
	.st19{fill:#C1C1C1;}
	.st20{fill:#7D7D7D;}
	.st21{fill:#ACACAC;}
	.st22{fill:#FFFFFF;}
	.st23{clip-path:url(#SVGID_00000160888904937906278760000017350333060496103319_);}
	.st24{fill:#5E5E5E;}
	.st25{clip-path:url(#SVGID_00000116197461538292347010000009082255245452338339_);}
	.st26{fill:#A5A5A5;}
	.st27{fill:#9A9A9A;}
	.st28{fill:#ADADAD;}
	.st29{fill:#AAAAAA;}
	.st30{fill:#5D5D5D;}
	.st31{fill:#7A7A7A;}
	.st32{clip-path:url(#SVGID_00000005944970398512721090000003017584580883801997_);}
	.st33{fill:#A9A9A9;}
	.st34{clip-path:url(#SVGID_00000162344789343700587140000004909811971872730263_);}
	.st35{fill:none;}
</style>
<g>
	<defs>
		<path id="SVGID_1_" d="M15.7,70.5c3.6-11,6.2-21.9,7.1-32.6l22.9-10.8l23.4,10.8c1.6,11.7,3.9,22.5,7,32.5
			c-17,16.1-24.2,39-28.2,64.3h-1V78.9H45V135h-1C38.6,104.8,30.4,80.8,15.7,70.5L15.7,70.5z"/>
	</defs>
	<clipPath id="SVGID_00000019648183981349219180000009015680421266421941_">
		<use xlink:href="#SVGID_1_"  style="overflow:visible;"/>
	</clipPath>
	<g style="clip-path:url(#SVGID_00000019648183981349219180000009015680421266421941_);">
		<path class="st1" d="M73.5,50.6l5.1,15l-23.5-7.3l11.3-7.7H73.5z"/>
		<polygon class="st2" points="34.6,37.3 20.6,46.1 21.3,38.1 		"/>
		<polygon class="st3" points="72.7,54.2 66,51.3 71.8,46.6 		"/>
		<polygon class="st4" points="63,41 68.5,37.2 73.3,46.6 63.2,53.5 58.3,45.6 		"/>
		<polygon class="st5" points="20.6,47.4 28.3,49.9 33.6,37.7 19.7,45.8 		"/>
		<polygon class="st6" points="73.6,62.1 77.4,73.9 73.9,75.2 54.1,57 		"/>
		<polygon class="st7" points="60.4,48.6 55.8,58.7 66.4,51.3 		"/>
		<path class="st8" d="M62.3,34.4l6.3,2.5l-7.8,12.5L31.7,38L62.3,34.4L62.3,34.4z"/>
		<polygon class="st9" points="45.7,27.1 33.8,32.7 32.2,38.4 68.1,36.9 46.8,26.3 		"/>
		<polygon class="st10" points="28.4,48.7 21.4,66.4 40.2,68.7 		"/>
		<polygon class="st11" points="19.7,52.2 28.5,49.5 17.2,65.7 		"/>
		<polygon class="st12" points="25.4,82.2 27.6,80.4 30.2,89.3 		"/>
		<polygon class="st13" points="20.2,52.4 28,49.8 20.9,47.5 		"/>
		<polygon class="st11" points="20.6,66 23.4,66.2 27.8,81.1 24.8,82.8 15.3,71.3 		"/>
		<polygon class="st14" points="41.1,68.1 22.9,65.6 27.2,81.4 43.6,70.7 		"/>
		<polygon class="st11" points="45.5,84.2 27.4,81.1 42.5,71.4 45.7,78.2 		"/>
		<polygon class="st15" points="27.8,81.1 30.3,90.1 33.2,96.7 50.5,84.8 		"/>
		<polygon class="st16" points="28,49.8 21.6,66.4 15.7,71 16.9,65.2 		"/>
		<polygon class="st13" points="45.4,88 32.8,96.9 45.7,106.8 		"/>
		<polygon class="st11" points="48.1,77 50.5,85.5 46.1,85.2 45.9,77.3 		"/>
		<polygon class="st13" points="65,75.4 67.4,81.8 62.7,89.2 64.6,74.6 		"/>
		<polygon class="st17" points="64.7,75.9 72.6,74.2 66.9,82.5 		"/>
		<polygon class="st15" points="46.4,84.1 50.8,84.8 46.2,87.8 		"/>
		<polygon class="st14" points="48.3,77.7 50.1,84.9 63.5,76 51.9,77.8 49.4,76 		"/>
		<polygon class="st18" points="46.2,106.1 54.5,111.9 53.5,116.2 45.9,117.2 		"/>
		<polygon class="st18" points="39.2,118.2 45.7,117.4 45.7,106.4 33.4,96.9 		"/>
		<polygon class="st12" points="51.8,116.1 50.3,122 46.3,124.8 46.1,117 		"/>
		<polygon class="st12" points="39.6,117.8 45,117.5 45,126 41.4,128.8 		"/>
		<polygon class="st19" points="50.8,121.4 45.9,125 46.4,135.2 49.6,135.9 		"/>
		<polygon class="st19" points="45.5,125.5 41.5,128.6 42.9,134.1 45.5,134.9 		"/>
		<polygon class="st6" points="27.8,49.1 40.2,68.7 55.9,58.6 		"/>
		<path class="st10" d="M55.9,58.6L28,49.8l4.8-11.4L55.9,58.6L55.9,58.6z"/>
		<polygon class="st1" points="30.9,37.3 55.9,58.6 62.4,46.8 		"/>
		<polygon class="st7" points="55.6,58.3 51.9,77.9 40,68.5 		"/>
		<polygon class="st12" points="21.4,39 32.8,38.4 40.3,29.1 20.6,37.7 		"/>
		<polygon class="st20" points="50.3,85 46.1,87.9 46.4,106.8 53.6,112.2 55.5,104.4 		"/>
		<polygon class="st21" points="63.5,75.7 49.7,84.2 55.9,105.6 63,87.5 64.9,75 		"/>
		<polygon class="st16" points="55.4,57.7 51.9,77.9 74.5,74.5 		"/>
	</g>
</g>
<circle class="st22" cx="46" cy="73.8" r="5.3"/>
<circle class="st19" cx="43.7" cy="134.9" r="1.3"/>
<circle class="st19" cx="48.2" cy="134.9" r="1.3"/>
<rect x="39.2" y="44.5" class="st22" width="6.4" height="6.4"/>
<rect x="47.4" y="44.5" class="st22" width="6.4" height="6.4"/>
<rect x="39.2" y="52.8" class="st22" width="6.4" height="6.4"/>
<rect x="47.4" y="52.8" class="st22" width="6.4" height="6.4"/>
<g>
	<path class="st3" d="M79.2,61.4l3-9.2c-0.7-0.5-1.2-1.3-1.2-2.2c0-1.1,0.7-2,1.6-2.4V22.1l2.1-1.6l0.1,27.1
		c0.9,0.4,1.5,1.3,1.5,2.4c0,0.9-0.4,1.6-1.1,2.1l2.9,9.3H79.2z"/>
	<g>
		<defs>
			<path id="SVGID_00000054241046332514588580000007564077392037713826_" d="M79.2,61.4l3-9.2c-0.7-0.5-1.2-1.3-1.2-2.2
				c0-1.1,0.7-2,1.6-2.4V22.1l2.1-1.6l0.1,27.1c0.9,0.4,1.5,1.3,1.5,2.4c0,0.9-0.4,1.6-1.1,2.1l2.9,9.3H79.2z"/>
		</defs>
		<clipPath id="SVGID_00000182490119045511906260000013017160738866264712_">
			<use xlink:href="#SVGID_00000054241046332514588580000007564077392037713826_"  style="overflow:visible;"/>
		</clipPath>
		<g style="clip-path:url(#SVGID_00000182490119045511906260000013017160738866264712_);">
			<polygon class="st4" points="81.4,40.6 88.7,36.3 87.9,19 78.9,24.9 			"/>
			<polygon class="st24" points="79.2,56 90.5,60.7 89.6,63.2 76,63.2 			"/>
		</g>
	</g>
</g>
<g>
	<defs>
		<path id="SVGID_00000090295389392121776570000015903558212818835091_" d="M20.3,28.4v-7.2c19.9-5.5,37.4-5.9,51.6,1v6.6L87,20.4
			L46.3,0L13.2,16.2l-7.9,3.9C5.2,20.1,20.3,28.4,20.3,28.4z"/>
	</defs>
	<clipPath id="SVGID_00000089566419486454759230000001307459327907103659_">
		<use xlink:href="#SVGID_00000090295389392121776570000015903558212818835091_"  style="overflow:visible;"/>
	</clipPath>
	<g style="clip-path:url(#SVGID_00000089566419486454759230000001307459327907103659_);">
		<polygon class="st26" points="38.1,16 44.9,12.8 50,18.4 39,18.4 		"/>
		<polygon class="st18" points="9.8,15.5 29.4,13.1 48.9,-1.3 47.7,0.7 46.1,14.2 20.3,28.6 2.7,18.7 		"/>
		<polygon class="st27" points="47.3,0.5 28.7,14.4 28.1,8.9 46.3,0 		"/>
		<polygon class="st26" points="28.7,14.4 28.1,8.9 13.2,16.2 		"/>
		<polygon class="st28" points="21.5,12.1 28.7,14.4 28.7,7.5 		"/>
		<polygon class="st28" points="41.4,10.6 49.1,17.5 59.9,3.1 47.7,-0.2 		"/>
		<polygon class="st29" points="58.2,4 46.3,18.5 66.4,21.3 64.8,6 		"/>
		<polygon class="st27" points="79.8,14.9 72.1,30.2 64.6,20.1 64.6,7.3 		"/>
		<polygon class="st30" points="84.4,17.8 88,19.9 78.3,28.1 78.7,21.8 		"/>
		<polygon class="st31" points="86,17.4 77.8,26.5 72.4,29 79.1,14.2 		"/>
	</g>
</g>
<g>
	<defs>
		<path id="SVGID_00000165224072914853918720000001489605039359599027_" d="M23.1,35.8V23.3c19.4-4.6,34.5-4.1,45.9,0.7v11.8
			L46,24.8L23.1,35.8L23.1,35.8z"/>
	</defs>
	<clipPath id="SVGID_00000062888874524463276960000010346807403403232442_">
		<use xlink:href="#SVGID_00000165224072914853918720000001489605039359599027_"  style="overflow:visible;"/>
	</clipPath>
	<g style="clip-path:url(#SVGID_00000062888874524463276960000010346807403403232442_);">
		<polygon class="st9" points="46.1,18.9 51.7,18.9 67.3,35.8 45.6,26.3 39.9,29.3 		"/>
		<polygon class="st27" points="68.1,35.8 70.2,36.9 69.7,24.1 65.4,22.5 		"/>
		<polygon class="st28" points="66.8,22 68.5,36.5 57.1,27.7 48.8,18.7 		"/>
		<polygon class="st18" points="21.9,27.9 36,19.8 22.5,21.6 		"/>
		<polygon class="st26" points="22.7,26.7 22.4,36.1 33,31 31.8,22.2 		"/>
		<polygon class="st33" points="29.8,20.1 31.7,32.8 41.8,27.5 48,18.4 		"/>
	</g>
</g>
<g>
	<defs>
		<path id="SVGID_00000094587665493006610310000012578938335422394520_" d="M124.7,47v26c0,3.5,1,6.8,5.7,6.8c4.7,0,5.5-3.1,5.5-6.8
			V47H147v25.6c0,9.3-4.7,15.2-16.8,15.2c-12.1,0-16.5-6-16.5-15.3V47L124.7,47L124.7,47z M153.1,66c0-6.4,0-8.2-0.1-9.6h10.5
			c0.1,0.5,0.3,2.3,0.3,3.4c1.3-2.1,4.1-4.1,8.4-4.1c6.3,0,9.5,4.3,9.5,10.9v20.4h-10.7V68.5c0-2.9-0.6-4.7-3.3-4.7
			c-2.5,0-3.7,1.3-3.7,5.6v17.7h-10.7L153.1,66L153.1,66z M233.1,74.1c0-6.2,0.1-14.7,0.3-19.5H233c-1.5,8.7-4.3,22-6.9,32.5h-8.9
			c-2-9.9-4.7-23.6-6.1-32.5h-0.4c0.3,4.7,0.5,12.9,0.5,19.8v12.7h-9.9V47h15.9c1.8,7.2,4.2,19.6,5,25.5h0.2
			c0.9-6.3,3.7-17.2,5.8-25.5h15.4v40.1h-10.6L233.1,74.1L233.1,74.1z M278.4,77.6c0,5,0,7.9,0.1,9.5h-10.5
			c-0.2-0.8-0.3-2.2-0.3-3.3c-2,2.9-4.5,3.9-8.3,3.9c-6.4,0-9.4-3.9-9.4-10.7V56.4h10.7v19c0,2.6,0.8,4.2,3.2,4.2
			c2.5,0,3.7-1.6,3.7-5.6V56.4h10.7V77.6z M284.9,66c0-6.4,0-8.2-0.1-9.6h10.5c0.1,0.5,0.3,2.3,0.3,3.4c1.3-2.1,4.1-4.1,8.4-4.1
			c6.3,0,9.5,4.3,9.5,10.9v20.4h-10.7V68.5c0-2.9-0.6-4.7-3.3-4.7c-2.5,0-3.7,1.3-3.7,5.6v17.7h-10.7L284.9,66L284.9,66z
			 M348.5,44.8v33.2c0,4.1,0,7.4,0.1,9.1h-10.4c-0.1-0.7-0.3-2.1-0.3-3.1c-1.6,2.4-3.7,3.7-8.3,3.7c-8,0-11.5-7.1-11.5-15.9
			c0-9.5,4.8-16.1,13-16.1c3.7,0,5.8,1.2,6.6,2.4V44.8C337.8,44.8,348.5,44.8,348.5,44.8z M329.1,71.4c0,5.7,1.3,8.6,4.6,8.6
			c3.9,0,4.6-2.7,4.6-8.6c0-5.9-0.7-8-4.3-8C330.9,63.4,329.1,65.8,329.1,71.4L329.1,71.4z M384.8,71.4c0,8.7-4.2,16.4-15.7,16.4
			c-11.5,0-15.4-8-15.4-16.2c0-6.8,3.6-15.8,15.8-15.8S384.8,64.1,384.8,71.4z M364.6,71.5c0,6.3,1.5,9,4.7,9c3,0,4.5-2.7,4.5-8.9
			s-1.4-8.3-4.7-8.3C366.2,63.2,364.6,65.7,364.6,71.5L364.6,71.5z M403.4,47h15.5c13,0,19.3,7.6,19.3,19.4c0,12.9-7,20.7-19.5,20.7
			h-15.3L403.4,47L403.4,47z M414.5,79.2h3.7c5.8,0,8.5-3.9,8.5-12.6c0-7.6-2.3-11.5-8.4-11.5h-3.8L414.5,79.2L414.5,79.2z M453,74
			c0,3.5,1.1,6.4,4.5,6.4c2.7,0,3.5-1.6,3.9-3h10.3c-1.2,4.6-4.6,10.3-14.5,10.3c-11,0-15-7.2-15-15.9c0-7.8,3.9-16,15.3-16
			c11.4,0,14.6,7.7,14.6,15.7c0,0.3,0,2.2-0.1,2.6L453,74L453,74z M461.4,68.1c-0.1-2.9-0.9-5.3-4.1-5.3s-4.2,2.6-4.3,5.3H461.4z
			 M523.9,73.8c-1.1,7.9-6.2,14.1-17.2,14.1c-13.5,0-18.1-9.5-18.1-20.7s5.8-20.8,18.5-20.8c12.7,0,16.2,7.7,16.6,13.9h-10.8
			c-0.6-3.1-1.6-5.8-5.9-5.8c-5.2,0-6.8,5.3-6.8,12.7s1.7,12.6,6.9,12.6c4.3,0,5.5-3.2,6-5.9L523.9,73.8L523.9,73.8z M558.8,71.4
			c0,8.7-4.2,16.4-15.7,16.4s-15.4-8-15.4-16.2c0-6.8,3.6-15.8,15.8-15.8C555.6,55.8,558.8,64.1,558.8,71.4L558.8,71.4z M538.6,71.5
			c0,6.3,1.5,9,4.7,9c3,0,4.5-2.7,4.5-8.9s-1.4-8.3-4.7-8.3C540.2,63.2,538.6,65.7,538.6,71.5L538.6,71.5z M563.8,66
			c0-6.4,0-8.2-0.1-9.6h10.5c0.1,0.5,0.3,2.3,0.3,3.4c1.3-2.1,4.1-4.1,8.4-4.1c6.3,0,9.5,4.3,9.5,10.9v20.4h-10.7V68.5
			c0-2.9-0.6-4.7-3.3-4.7c-2.5,0-3.7,1.3-3.7,5.6v17.7h-10.7L563.8,66L563.8,66z M628.3,71.4c0,8.7-4.2,16.4-15.7,16.4
			s-15.4-8-15.4-16.2c0-6.8,3.6-15.8,15.8-15.8C625.2,55.8,628.3,64.1,628.3,71.4L628.3,71.4z M608.2,71.5c0,6.3,1.5,9,4.7,9
			c3,0,4.5-2.7,4.5-8.9s-1.4-8.3-4.7-8.3C609.7,63.2,608.2,65.7,608.2,71.5L608.2,71.5z M661.1,75.9c-0.8,6.7-4.8,11.8-14.4,11.8
			c-10.7,0-14.7-6.5-14.7-15.8c0-10.4,5.9-16.2,15.2-16.2c11.2,0,13.8,7.5,13.9,12h-10.4c-0.1-2.6-0.9-4.8-3.5-4.8
			c-3,0-4.2,2.7-4.2,8.6c0,6.7,1.4,9,4,9c2.6,0,3.3-2,3.7-4.7L661.1,75.9L661.1,75.9z M665.7,44.9h10.7v7.8h-10.7V44.9z M665.7,56.4
			h10.7v30.7h-10.7V56.4z M682.8,66c0-6.6,0-8.1-0.1-9.6h10.4c0.2,1,0.2,2.3,0.3,3.3c1.7-2.4,4.3-3.9,8.4-3.9c4.4,0,6.5,2.1,7.5,4.3
			c1.4-2.1,4.5-4.3,9.1-4.3c5.7,0,9.8,3.5,9.8,11v20.4h-10.5V68c0-2.2-0.7-4.1-3.2-4.1c-2.6,0-3.7,1.9-3.7,5.5v17.8h-10.6V67.8
			c0-2.2-1-3.9-3.2-3.9c-2.5,0-3.7,1.5-3.7,5.8v17.5h-10.6L682.8,66L682.8,66z M734.7,44.9h10.7v7.8h-10.7V44.9z M734.7,56.4h10.7
			v30.7h-10.7V56.4z M761.2,74c0,3.5,1.1,6.4,4.5,6.4c2.7,0,3.5-1.6,3.9-3h10.3c-1.2,4.6-4.6,10.3-14.5,10.3c-11,0-15-7.2-15-15.9
			c0-7.8,3.9-16,15.3-16s14.6,7.7,14.6,15.7c0,0.3,0,2.2-0.1,2.6L761.2,74L761.2,74z M769.6,68.1c-0.1-2.9-0.9-5.3-4.1-5.3
			s-4.2,2.6-4.3,5.3H769.6z M785.3,66c0-6.4,0-8.2-0.1-9.6h10.5c0.1,0.5,0.3,2.3,0.3,3.4c1.3-2.1,4.1-4.1,8.4-4.1
			c6.3,0,9.5,4.3,9.5,10.9v20.4h-10.7V68.5c0-2.9-0.6-4.7-3.3-4.7c-2.5,0-3.7,1.3-3.7,5.6v17.7h-10.7L785.3,66L785.3,66z
			 M817.4,56.4h4v-7.9H832v7.9h4.9v7.5H832v13.5c0,1.9,0.5,2.7,2.8,2.7c0.6,0,0.8,0,1.5-0.1v6.8c-1.8,0.6-4.6,0.7-6,0.7
			c-7,0-9-2.6-9-8.6V63.9h-4L817.4,56.4L817.4,56.4z M870.1,71.4c0,8.7-4.2,16.4-15.7,16.4c-11.5,0-15.4-8-15.4-16.2
			c0-6.8,3.6-15.8,15.8-15.8S870.1,64.1,870.1,71.4z M850,71.5c0,6.3,1.5,9,4.7,9c3,0,4.5-2.7,4.5-8.9c0-6.2-1.4-8.3-4.7-8.3
			C851.5,63.2,850,65.7,850,71.5L850,71.5z M883,77.4c0.3,2.2,1.8,3.4,4.2,3.4c2.2,0,3.4-0.8,3.4-2.3c0-1.6-1.6-2.2-5.4-3.2
			c-9.2-2.3-11.2-5.3-11.2-9.8s3.4-9.8,12.8-9.8s12.8,4.8,13.1,9.7h-9.7c-0.2-1.5-1-3-3.6-3c-1.7,0-2.7,0.7-2.7,2.1
			c0,1.3,1.1,1.8,5.6,3c8.2,2.1,11.2,5,11.2,10.2c0,6.3-5.1,10.1-13.7,10.1c-8.6,0-13.3-3.9-13.9-10.3L883,77.4L883,77.4z"/>
	</defs>
	<clipPath id="SVGID_00000176040531095121599870000014866934829165131918_">
		<use xlink:href="#SVGID_00000094587665493006610310000012578938335422394520_"  style="overflow:visible;"/>
	</clipPath>
	<g style="clip-path:url(#SVGID_00000176040531095121599870000014866934829165131918_);">
		<g>
			<path class="st1" d="M234.1,37l11,32.6L194,53.8L218.6,37H234.1L234.1,37z"/>
			<polygon class="st2" points="149.6,8.3 119.2,27.3 120.7,10 			"/>
			<polygon class="st3" points="232.3,44.8 217.8,38.6 230.4,28.5 			"/>
			<polygon class="st4" points="211.1,16.2 223,7.9 233.5,28.3 211.6,43.5 201,26.2 			"/>
			<polygon class="st5" points="119.2,30.1 135.9,35.4 147.4,9.1 117.2,26.7 			"/>
			<polygon class="st6" points="234.1,62.1 242.5,87.6 234.8,90.4 192,51.1 			"/>
			<polygon class="st7" points="205.5,32.7 195.6,54.6 218.6,38.7 			"/>
			<path class="st8" d="M209.7,1.9l13.7,5.4l-16.9,27.1L143.2,9.7C143.2,9.7,209.7,1.9,209.7,1.9z"/>
			<polygon class="st9" points="173.6,-13.9 147.9,-1.8 144.4,10.6 222.3,7.3 176.1,-15.6 			"/>
			<polygon class="st10" points="136.1,33 121,71.3 161.7,76.4 			"/>
			<polygon class="st11" points="117.2,40.6 136.3,34.8 111.9,69.8 			"/>
			<polygon class="st12" points="129.5,105.5 134.5,101.8 140.1,121.1 			"/>
			<polygon class="st13" points="118.3,40.9 135.2,35.2 119.7,30.3 			"/>
			<polygon class="st11" points="119.2,70.5 125.3,71 134.7,103.2 128.4,106.9 107.7,82 			"/>
			<polygon class="st14" points="163.7,75.1 124.1,69.6 133.6,103.8 169.2,80.7 			"/>
			<polygon class="st11" points="173.2,110 133.9,103.2 166.7,82.2 173.6,96.9 			"/>
			<polygon class="st15" points="134.7,103.2 140.3,122.7 146.6,137.2 184.2,111.3 			"/>
			<polygon class="st16" points="135.2,35.2 121.3,71.4 108.5,81.4 111.3,68.7 			"/>
			<polygon class="st13" points="173.1,118.2 145.6,137.6 173.6,159.1 			"/>
			<polygon class="st11" points="178.8,94.5 184,112.9 174.6,112.1 174,94.9 			"/>
			<polygon class="st13" points="215.6,90.9 220.7,104.7 210.5,120.8 214.7,89.1 			"/>
			<polygon class="st17" points="214.8,91.9 232.1,88.2 219.8,106.2 			"/>
			<polygon class="st15" points="175.2,109.8 184.8,111.4 174.8,117.7 			"/>
			<polygon class="st14" points="179.2,95.9 183.3,111.4 212.4,92.3 187.2,96.1 181.8,92.2 			"/>
			<polygon class="st18" points="174.8,157.5 192.7,170.2 190.5,179.4 174,181.5 			"/>
			<polygon class="st18" points="159.6,183.8 173.6,182.1 173.6,158.1 147,137.6 			"/>
			<polygon class="st12" points="186.8,179.2 183.7,192 174.9,198 174.6,181.1 			"/>
			<polygon class="st6" points="134.7,33.9 161.7,76.4 195.7,54.4 			"/>
			<path class="st10" d="M195.7,54.4l-60.5-19.1l10.5-24.7L195.7,54.4L195.7,54.4z"/>
			<polygon class="st1" points="141.5,8.3 195.7,54.4 210,28.9 			"/>
			<polygon class="st7" points="195.2,53.7 187.1,96.4 161.3,75.8 			"/>
			<polygon class="st12" points="121,11.9 145.7,10.5 162,-9.6 119.2,9.1 			"/>
			<polygon class="st20" points="183.7,111.6 174.6,117.9 175.3,159.1 190.9,170.8 195,153.9 			"/>
			<polygon class="st21" points="212.3,91.6 182.4,110 195.8,156.4 211.2,117 215.3,89.9 			"/>
			<polygon class="st16" points="194.8,52.5 187.1,96.4 236.1,88.9 			"/>
			<path class="st35" d="M108.5,80.2c7.9-24,13.5-47.6,15.3-70.7l49.8-23.4l50.7,23.5c3.4,25.3,8.6,48.7,15.1,70.6
				c-36.9,34.9-52.6,84.7-61.1,139.5h-2.3V98.6h-4v121.6h-2.3C158.3,154.6,140.3,102.6,108.5,80.2L108.5,80.2z"/>
		</g>
		<g>
			<path class="st1" d="M347.2,37l11,32.6l-51.1-15.8L331.6,37H347.2L347.2,37z"/>
			<polygon class="st2" points="262.6,8.3 232.2,27.3 233.8,10 			"/>
			<polygon class="st3" points="345.4,44.8 330.8,38.6 343.5,28.5 			"/>
			<polygon class="st4" points="324.2,16.2 336.1,7.9 346.6,28.3 324.7,43.5 314.1,26.2 			"/>
			<polygon class="st5" points="232.2,30.1 249,35.4 260.4,9.1 230.2,26.7 			"/>
			<polygon class="st6" points="347.2,62.1 355.6,87.6 347.9,90.4 305.1,51.1 			"/>
			<polygon class="st7" points="318.6,32.7 308.7,54.6 331.6,38.7 			"/>
			<path class="st8" d="M322.8,1.9l13.7,5.4l-16.9,27.1L256.3,9.7C256.3,9.7,322.8,1.9,322.8,1.9z"/>
			<polygon class="st9" points="286.7,-13.9 260.9,-1.8 257.4,10.6 335.4,7.3 289.2,-15.6 			"/>
			<polygon class="st10" points="249.2,33 234.1,71.3 274.7,76.4 			"/>
			<polygon class="st11" points="230.2,40.6 249.4,34.8 225,69.8 			"/>
			<polygon class="st12" points="242.6,105.5 247.5,101.8 253.2,121.1 			"/>
			<polygon class="st13" points="231.4,40.9 248.3,35.2 232.8,30.3 			"/>
			<polygon class="st11" points="232.2,70.5 238.3,71 247.8,103.2 241.5,106.9 220.7,82 			"/>
			<polygon class="st14" points="276.8,75.1 237.2,69.6 246.6,103.8 282.3,80.7 			"/>
			<polygon class="st11" points="286.2,110 247,103.2 279.8,82.2 286.7,96.9 			"/>
			<polygon class="st15" points="247.8,103.2 253.3,122.7 259.7,137.2 297.2,111.3 			"/>
			<polygon class="st16" points="248.3,35.2 234.4,71.4 221.6,81.4 224.3,68.7 			"/>
			<polygon class="st13" points="286.1,118.2 258.7,137.6 286.7,159.1 			"/>
			<polygon class="st11" points="291.9,94.5 297.1,112.9 287.7,112.1 287.1,94.9 			"/>
			<polygon class="st13" points="328.7,90.9 333.8,104.7 323.6,120.8 327.8,89.1 			"/>
			<polygon class="st17" points="327.9,91.9 345.2,88.2 332.8,106.2 			"/>
			<polygon class="st15" points="288.3,109.8 297.9,111.4 287.9,117.7 			"/>
			<polygon class="st14" points="292.3,95.9 296.4,111.4 325.5,92.3 300.3,96.1 294.9,92.2 			"/>
			<polygon class="st18" points="287.9,157.5 305.8,170.2 303.6,179.4 287.1,181.5 			"/>
			<polygon class="st18" points="272.7,183.8 286.7,182.1 286.7,158.1 260.1,137.6 			"/>
			<polygon class="st12" points="299.9,179.2 296.8,192 287.9,198 287.7,181.1 			"/>
			<polygon class="st6" points="247.8,33.9 274.7,76.4 308.8,54.4 			"/>
			<path class="st10" d="M308.8,54.4l-60.5-19.1l10.5-24.7L308.8,54.4L308.8,54.4z"/>
			<polygon class="st1" points="254.5,8.3 308.8,54.4 323.1,28.9 			"/>
			<polygon class="st7" points="308.3,53.7 300.2,96.4 274.4,75.8 			"/>
			<polygon class="st12" points="234.1,11.9 258.8,10.5 275,-9.6 232.2,9.1 			"/>
			<polygon class="st20" points="296.8,111.6 287.7,117.9 288.4,159.1 303.9,170.8 308,153.9 			"/>
			<polygon class="st21" points="325.4,91.6 295.4,110 308.9,156.4 324.3,117 328.4,89.9 			"/>
			<polygon class="st16" points="307.9,52.5 300.2,96.4 349.2,88.9 			"/>
			<path class="st35" d="M221.6,80.2c7.9-24,13.5-47.6,15.3-70.7l49.8-23.4l50.7,23.5c3.4,25.3,8.6,48.7,15.1,70.6
				c-36.9,34.9-52.6,84.7-61.1,139.5h-2.3V98.6h-4v121.6h-2.3C271.3,154.6,253.4,102.6,221.6,80.2L221.6,80.2z"/>
		</g>
		<g>
			<path class="st1" d="M449.5,37l11,32.6l-51.1-15.8L434,37H449.5L449.5,37z"/>
			<polygon class="st2" points="365,8.3 334.5,27.3 336.2,10 			"/>
			<polygon class="st3" points="447.7,44.8 433.2,38.6 445.8,28.5 			"/>
			<polygon class="st4" points="426.5,16.2 438.4,7.9 448.9,28.3 427,43.5 416.5,26.2 			"/>
			<polygon class="st5" points="334.5,30.1 351.3,35.4 362.8,9.1 332.6,26.7 			"/>
			<polygon class="st6" points="449.6,62.1 457.9,87.6 450.2,90.4 407.4,51.1 			"/>
			<polygon class="st7" points="420.9,32.7 411,54.6 434,38.7 			"/>
			<path class="st8" d="M425.1,1.9l13.7,5.4l-16.9,27.1L358.6,9.7C358.6,9.7,425.1,1.9,425.1,1.9z"/>
			<polygon class="st9" points="389,-13.9 363.2,-1.8 359.8,10.6 437.7,7.3 391.5,-15.6 			"/>
			<polygon class="st10" points="351.6,33 336.4,71.3 377,76.4 			"/>
			<polygon class="st11" points="332.6,40.6 351.7,34.8 327.3,69.8 			"/>
			<polygon class="st12" points="344.9,105.5 349.9,101.8 355.5,121.1 			"/>
			<polygon class="st13" points="333.8,40.9 350.6,35.2 335.2,30.3 			"/>
			<polygon class="st11" points="334.5,70.5 340.7,71 350.1,103.2 343.8,106.9 323.1,82 			"/>
			<polygon class="st14" points="379.1,75.1 339.5,69.6 349,103.8 384.6,80.7 			"/>
			<polygon class="st11" points="388.6,110 349.3,103.2 382.1,82.2 389,96.9 			"/>
			<polygon class="st15" points="350.1,103.2 355.7,122.7 362,137.2 399.6,111.3 			"/>
			<polygon class="st16" points="350.6,35.2 336.7,71.4 323.9,81.4 326.6,68.7 			"/>
			<polygon class="st13" points="388.5,118.2 361,137.6 389,159.1 			"/>
			<polygon class="st11" points="394.2,94.5 399.5,112.9 390,112.1 389.4,94.9 			"/>
			<polygon class="st13" points="431,90.9 436.1,104.7 425.9,120.8 430.1,89.1 			"/>
			<polygon class="st17" points="430.2,91.9 447.5,88.2 435.2,106.2 			"/>
			<polygon class="st15" points="390.6,109.8 400.2,111.4 390.2,117.7 			"/>
			<polygon class="st14" points="394.6,95.9 398.7,111.4 427.8,92.3 402.6,96.1 397.2,92.2 			"/>
			<polygon class="st18" points="390.2,157.5 408.1,170.2 405.9,179.4 389.4,181.5 			"/>
			<polygon class="st18" points="375,183.8 389,182.1 389,158.1 362.4,137.6 			"/>
			<polygon class="st12" points="402.2,179.2 399.1,192 390.3,198 390,181.1 			"/>
			<polygon class="st6" points="350.1,33.9 377,76.4 411.1,54.4 			"/>
			<path class="st10" d="M411.1,54.4l-60.5-19.1l10.5-24.7L411.1,54.4L411.1,54.4z"/>
			<polygon class="st1" points="356.9,8.3 411.1,54.4 425.4,28.9 			"/>
			<polygon class="st7" points="410.6,53.7 402.5,96.4 376.7,75.8 			"/>
			<polygon class="st12" points="336.4,11.9 361.1,10.5 377.4,-9.6 334.5,9.1 			"/>
			<polygon class="st20" points="399.1,111.6 390,117.9 390.7,159.1 406.3,170.8 410.4,153.9 			"/>
			<polygon class="st21" points="427.7,91.6 397.8,110 411.2,156.4 426.6,117 430.7,89.9 			"/>
			<polygon class="st16" points="410.2,52.5 402.5,96.4 451.5,88.9 			"/>
			<path class="st35" d="M323.9,80.2c7.9-24,13.5-47.6,15.3-70.7L389-13.9l50.7,23.5c3.4,25.3,8.6,48.7,15.1,70.6
				c-36.9,34.9-52.6,84.7-61.1,139.5h-2.3V98.6h-4v121.6h-2.3C373.7,154.6,355.7,102.6,323.9,80.2L323.9,80.2z"/>
		</g>
		<g>
			<path class="st1" d="M564,35.6l11,32.6L524,52.4l24.5-16.8H564L564,35.6z"/>
			<polygon class="st2" points="479.5,6.8 449.1,25.8 450.7,8.5 			"/>
			<polygon class="st3" points="562.2,43.3 547.7,37.2 560.3,27 			"/>
			<polygon class="st4" points="541,14.7 552.9,6.5 563.4,26.9 541.5,42 531,24.7 			"/>
			<polygon class="st5" points="449.1,28.7 465.8,34 477.3,7.6 447.1,25.2 			"/>
			<polygon class="st6" points="564.1,60.6 572.4,86.1 564.7,88.9 521.9,49.6 			"/>
			<polygon class="st7" points="535.4,31.3 525.5,53.1 548.5,37.2 			"/>
			<path class="st8" d="M539.6,0.4l13.7,5.4L536.4,33L473.1,8.3C473.1,8.3,539.6,0.4,539.6,0.4z"/>
			<polygon class="st9" points="503.5,-15.4 477.7,-3.3 474.3,9.1 552.2,5.9 506,-17.1 			"/>
			<polygon class="st10" points="466.1,31.6 450.9,69.9 491.5,74.9 			"/>
			<polygon class="st11" points="447.1,39.2 466.2,33.3 441.8,68.4 			"/>
			<polygon class="st12" points="459.4,104.1 464.4,100.3 470,119.7 			"/>
			<polygon class="st13" points="448.3,39.5 465.1,33.8 449.7,28.8 			"/>
			<polygon class="st11" points="449.1,69 455.2,69.6 464.6,101.7 458.3,105.4 437.6,80.6 			"/>
			<polygon class="st14" points="493.6,73.6 454,68.2 463.5,102.4 499.1,79.2 			"/>
			<polygon class="st11" points="503.1,108.6 463.8,101.7 496.6,80.8 503.5,95.4 			"/>
			<polygon class="st15" points="464.6,101.7 470.2,121.3 476.5,135.7 514.1,109.9 			"/>
			<polygon class="st16" points="465.1,33.8 451.2,69.9 438.4,79.9 441.2,67.2 			"/>
			<polygon class="st13" points="503,116.8 475.6,136.1 503.5,157.6 			"/>
			<polygon class="st11" points="508.7,93 514,111.4 504.5,110.6 503.9,93.4 			"/>
			<polygon class="st13" points="545.5,89.4 550.6,103.2 540.4,119.3 544.6,87.6 			"/>
			<polygon class="st17" points="544.7,90.4 562,86.7 549.7,104.8 			"/>
			<polygon class="st15" points="505.1,108.3 514.7,109.9 504.7,116.3 			"/>
			<polygon class="st14" points="509.1,94.4 513.2,110 542.3,90.8 517.1,94.7 511.7,90.7 			"/>
			<polygon class="st18" points="504.7,156.1 522.6,168.7 520.4,178 503.9,180.1 			"/>
			<polygon class="st18" points="489.5,182.3 503.5,180.6 503.5,156.7 476.9,136.1 			"/>
			<polygon class="st12" points="516.7,177.8 513.6,190.5 504.8,196.6 504.5,179.6 			"/>
			<polygon class="st12" points="490.3,181.5 502,180.8 502,199.1 494.2,205.3 			"/>
			<polygon class="st6" points="464.6,32.4 491.5,74.9 525.7,52.9 			"/>
			<path class="st10" d="M525.7,52.9l-60.5-19.1l10.5-24.7L525.7,52.9L525.7,52.9z"/>
			<polygon class="st1" points="471.4,6.8 525.7,52.9 539.9,27.4 			"/>
			<polygon class="st7" points="525.1,52.3 517.1,94.9 491.2,74.4 			"/>
			<polygon class="st12" points="450.9,10.4 475.6,9.1 491.9,-11 449.1,7.6 			"/>
			<polygon class="st20" points="513.6,110.2 504.5,116.4 505.2,157.6 520.8,169.3 524.9,152.4 			"/>
			<polygon class="st21" points="542.2,90.2 512.3,108.6 525.7,155 541.1,115.6 545.2,88.5 			"/>
			<polygon class="st16" points="524.7,51 517.1,94.9 566,87.4 			"/>
			<path class="st35" d="M438.4,78.7c7.9-24,13.5-47.6,15.3-70.7l49.8-23.4l50.7,23.5c3.4,25.3,8.6,48.7,15.1,70.6
				c-36.9,34.9-52.6,84.7-61.1,139.5H506V97.1h-4v121.6h-2.3C488.2,153.2,470.2,101.1,438.4,78.7L438.4,78.7z"/>
		</g>
		<g>
			<path class="st1" d="M654.9,35.6l11,32.6l-51.1-15.8l24.5-16.8H654.9L654.9,35.6z"/>
			<polygon class="st2" points="570.4,6.8 540,25.8 541.6,8.5 			"/>
			<polygon class="st3" points="653.1,43.3 638.6,37.2 651.2,27 			"/>
			<polygon class="st4" points="632,14.7 643.9,6.5 654.4,26.9 632.4,42 621.9,24.7 			"/>
			<polygon class="st5" points="540,28.7 556.7,34 568.2,7.6 538,25.2 			"/>
			<polygon class="st6" points="655,60.6 663.3,86.1 655.6,88.9 612.8,49.6 			"/>
			<polygon class="st7" points="626.4,31.3 616.5,53.1 639.4,37.2 			"/>
			<path class="st8" d="M630.6,0.4l13.7,5.4L627.4,33L564,8.3C564,8.3,630.6,0.4,630.6,0.4z"/>
			<polygon class="st9" points="594.4,-15.4 568.7,-3.3 565.2,9.1 643.2,5.9 596.9,-17.1 			"/>
			<polygon class="st10" points="557,31.6 541.8,69.9 582.5,74.9 			"/>
			<polygon class="st11" points="538,39.2 557.1,33.3 532.7,68.4 			"/>
			<polygon class="st12" points="550.3,104.1 555.3,100.3 560.9,119.7 			"/>
			<polygon class="st13" points="539.2,39.5 556.1,33.8 540.6,28.8 			"/>
			<polygon class="st11" points="540,69 546.1,69.6 555.6,101.7 549.2,105.4 528.5,80.6 			"/>
			<polygon class="st14" points="584.5,73.6 544.9,68.2 554.4,102.4 590,79.2 			"/>
			<polygon class="st11" points="594,108.6 554.8,101.7 587.6,80.8 594.4,95.4 			"/>
			<polygon class="st15" points="555.6,101.7 561.1,121.3 567.5,135.7 605,109.9 			"/>
			<polygon class="st16" points="556.1,33.8 542.1,69.9 529.3,79.9 532.1,67.2 			"/>
			<polygon class="st13" points="593.9,116.8 566.5,136.1 594.4,157.6 			"/>
			<polygon class="st11" points="599.6,93 604.9,111.4 595.4,110.6 594.8,93.4 			"/>
			<polygon class="st13" points="636.5,89.4 641.6,103.2 631.4,119.3 635.5,87.6 			"/>
			<polygon class="st17" points="635.7,90.4 652.9,86.7 640.6,104.8 			"/>
			<polygon class="st15" points="596.1,108.3 605.6,109.9 595.7,116.3 			"/>
			<polygon class="st14" points="600.1,94.4 604.1,110 633.2,90.8 608,94.7 602.6,90.7 			"/>
			<polygon class="st18" points="595.7,156.1 613.6,168.7 611.4,178 594.8,180.1 			"/>
			<polygon class="st18" points="580.4,182.3 594.4,180.6 594.4,156.7 567.9,136.1 			"/>
			<polygon class="st12" points="607.6,177.8 604.5,190.5 595.7,196.6 595.4,179.6 			"/>
			<polygon class="st12" points="581.2,181.5 593,180.8 593,199.1 585.1,205.3 			"/>
			<polygon class="st6" points="555.6,32.4 582.5,74.9 616.6,52.9 			"/>
			<path class="st10" d="M616.6,52.9l-60.5-19.1l10.5-24.7L616.6,52.9L616.6,52.9z"/>
			<polygon class="st1" points="562.3,6.8 616.6,52.9 630.8,27.4 			"/>
			<polygon class="st7" points="616,52.3 608,94.9 582.1,74.4 			"/>
			<polygon class="st12" points="541.8,10.4 566.5,9.1 582.8,-11 540,7.6 			"/>
			<polygon class="st20" points="604.5,110.2 595.4,116.4 596.1,157.6 611.7,169.3 615.8,152.4 			"/>
			<polygon class="st21" points="633.1,90.2 603.2,108.6 616.7,155 632.1,115.6 636.1,88.5 			"/>
			<polygon class="st16" points="615.6,51 608,94.9 656.9,87.4 			"/>
			<path class="st35" d="M529.3,78.7c7.9-24,13.5-47.6,15.3-70.7l49.8-23.4l50.7,23.5c3.4,25.3,8.6,48.7,15.1,70.6
				c-36.9,34.9-52.6,84.7-61.1,139.5h-2.3V97.1h-4v121.6h-2.3C579.1,153.2,561.2,101.1,529.3,78.7L529.3,78.7z"/>
		</g>
		<g>
			<path class="st1" d="M770.7,35.6l11,32.6l-51.1-15.8l24.5-16.8H770.7L770.7,35.6z"/>
			<polygon class="st2" points="686.1,6.8 655.7,25.8 657.3,8.5 			"/>
			<polygon class="st3" points="768.9,43.3 754.3,37.2 767,27 			"/>
			<polygon class="st4" points="747.7,14.7 759.6,6.5 770.1,26.9 748.2,42 737.6,24.7 			"/>
			<polygon class="st5" points="655.7,28.7 672.4,34 683.9,7.6 653.7,25.2 			"/>
			<polygon class="st6" points="770.7,60.6 779,86.1 771.3,88.9 728.5,49.6 			"/>
			<polygon class="st7" points="742.1,31.3 732.2,53.1 755.1,37.2 			"/>
			<path class="st8" d="M746.3,0.4L760,5.9L743.1,33L679.7,8.3L746.3,0.4L746.3,0.4z"/>
			<polygon class="st9" points="710.2,-15.4 684.4,-3.3 680.9,9.1 758.9,5.9 712.7,-17.1 			"/>
			<polygon class="st10" points="672.7,31.6 657.6,69.9 698.2,74.9 			"/>
			<polygon class="st11" points="653.7,39.2 672.9,33.3 648.5,68.4 			"/>
			<polygon class="st12" points="666.1,104.1 671,100.3 676.7,119.7 			"/>
			<polygon class="st13" points="654.9,39.5 671.8,33.8 656.3,28.8 			"/>
			<polygon class="st11" points="655.7,69 661.8,69.6 671.3,101.7 664.9,105.4 644.2,80.6 			"/>
			<polygon class="st14" points="700.3,73.6 660.7,68.2 670.1,102.4 705.7,79.2 			"/>
			<polygon class="st11" points="709.7,108.6 670.5,101.7 703.3,80.8 710.2,95.4 			"/>
			<polygon class="st15" points="671.3,101.7 676.8,121.3 683.2,135.7 720.7,109.9 			"/>
			<polygon class="st16" points="671.8,33.8 657.9,69.9 645.1,79.9 647.8,67.2 			"/>
			<polygon class="st13" points="709.6,116.8 682.2,136.1 710.2,157.6 			"/>
			<polygon class="st11" points="715.4,93 720.6,111.4 711.2,110.6 710.6,93.4 			"/>
			<polygon class="st13" points="752.2,89.4 757.3,103.2 747.1,119.3 751.3,87.6 			"/>
			<polygon class="st17" points="751.4,90.4 768.6,86.7 756.3,104.8 			"/>
			<polygon class="st15" points="711.8,108.3 721.3,109.9 711.4,116.3 			"/>
			<polygon class="st14" points="715.8,94.4 719.9,110 748.9,90.8 723.8,94.7 718.4,90.7 			"/>
			<polygon class="st18" points="711.4,156.1 729.3,168.7 727.1,178 710.6,180.1 			"/>
			<polygon class="st18" points="696.2,182.3 710.2,180.6 710.2,156.7 683.6,136.1 			"/>
			<polygon class="st12" points="723.4,177.8 720.3,190.5 711.4,196.6 711.2,179.6 			"/>
			<polygon class="st12" points="697,181.5 708.7,180.8 708.7,199.1 700.9,205.3 			"/>
			<polygon class="st6" points="671.3,32.4 698.2,74.9 732.3,52.9 			"/>
			<path class="st10" d="M732.3,52.9l-60.5-19.1l10.5-24.7L732.3,52.9L732.3,52.9z"/>
			<polygon class="st1" points="678,6.8 732.3,52.9 746.5,27.4 			"/>
			<polygon class="st7" points="731.8,52.3 723.7,94.9 697.9,74.4 			"/>
			<polygon class="st12" points="657.6,10.4 682.3,9.1 698.5,-11 655.7,7.6 			"/>
			<polygon class="st20" points="720.3,110.2 711.2,116.4 711.9,157.6 727.4,169.3 731.5,152.4 			"/>
			<polygon class="st21" points="748.8,90.2 718.9,108.6 732.4,155 747.8,115.6 751.9,88.5 			"/>
			<polygon class="st16" points="731.3,51 723.7,94.9 772.7,87.4 			"/>
			<path class="st35" d="M645.1,78.7c7.9-24,13.5-47.6,15.3-70.7l49.8-23.4l50.7,23.5c3.4,25.3,8.6,48.7,15.1,70.6
				c-36.9,34.9-52.6,84.7-61.1,139.5h-2.3V97.1h-4v121.6h-2.3C694.8,153.2,676.9,101.1,645.1,78.7L645.1,78.7z"/>
		</g>
		<g>
			<path class="st1" d="M889,35.6l11,32.6L849,52.4l24.5-16.8H889L889,35.6z"/>
			<polygon class="st2" points="804.5,6.8 774.1,25.8 775.7,8.5 			"/>
			<polygon class="st3" points="887.2,43.3 872.7,37.2 885.3,27 			"/>
			<polygon class="st4" points="866.1,14.7 878,6.5 888.5,26.9 866.5,42 856,24.7 			"/>
			<polygon class="st5" points="774.1,28.7 790.8,34 802.3,7.6 772.1,25.2 			"/>
			<polygon class="st6" points="889.1,60.6 897.4,86.1 889.7,88.9 846.9,49.6 			"/>
			<polygon class="st7" points="860.5,31.3 850.6,53.1 873.5,37.2 			"/>
			<path class="st8" d="M864.7,0.4l13.7,5.4L861.5,33L798.1,8.3C798.1,8.3,864.7,0.4,864.7,0.4z"/>
			<polygon class="st9" points="828.5,-15.4 802.8,-3.3 799.3,9.1 877.3,5.9 831.1,-17.1 			"/>
			<polygon class="st10" points="791.1,31.6 776,69.9 816.6,74.9 			"/>
			<polygon class="st11" points="772.1,39.2 791.2,33.3 766.9,68.4 			"/>
			<polygon class="st12" points="784.5,104.1 789.4,100.3 795,119.7 			"/>
			<polygon class="st13" points="773.3,39.5 790.2,33.8 774.7,28.8 			"/>
			<polygon class="st11" points="774.1,69 780.2,69.6 789.7,101.7 783.3,105.4 762.6,80.6 			"/>
			<polygon class="st14" points="818.6,73.6 779,68.2 788.5,102.4 824.1,79.2 			"/>
			<polygon class="st11" points="828.1,108.6 788.9,101.7 821.7,80.8 828.5,95.4 			"/>
			<polygon class="st15" points="789.7,101.7 795.2,121.3 801.6,135.7 839.1,109.9 			"/>
			<polygon class="st16" points="790.2,33.8 776.2,69.9 763.5,79.9 766.2,67.2 			"/>
			<polygon class="st13" points="828,116.8 800.6,136.1 828.5,157.6 			"/>
			<polygon class="st11" points="833.8,93 839,111.4 829.5,110.6 828.9,93.4 			"/>
			<polygon class="st13" points="870.6,89.4 875.7,103.2 865.5,119.3 869.6,87.6 			"/>
			<polygon class="st17" points="869.8,90.4 887,86.7 874.7,104.8 			"/>
			<polygon class="st15" points="830.2,108.3 839.7,109.9 829.8,116.3 			"/>
			<polygon class="st14" points="834.2,94.4 838.2,110 867.3,90.8 842.1,94.7 836.7,90.7 			"/>
			<polygon class="st18" points="829.8,156.1 847.7,168.7 845.5,178 828.9,180.1 			"/>
			<polygon class="st18" points="814.6,182.3 828.5,180.6 828.5,156.7 802,136.1 			"/>
			<polygon class="st12" points="841.8,177.8 838.7,190.5 829.8,196.6 829.5,179.6 			"/>
			<polygon class="st12" points="815.3,181.5 827.1,180.8 827.1,199.1 819.2,205.3 			"/>
			<polygon class="st6" points="789.7,32.4 816.6,74.9 850.7,52.9 			"/>
			<path class="st10" d="M850.7,52.9l-60.5-19.1l10.5-24.7L850.7,52.9L850.7,52.9z"/>
			<polygon class="st1" points="796.4,6.8 850.7,52.9 864.9,27.4 			"/>
			<polygon class="st7" points="850.1,52.3 842.1,94.9 816.2,74.4 			"/>
			<polygon class="st12" points="776,10.4 800.7,9.1 816.9,-11 774.1,7.6 			"/>
			<polygon class="st20" points="838.7,110.2 829.5,116.4 830.2,157.6 845.8,169.3 849.9,152.4 			"/>
			<polygon class="st21" points="867.2,90.2 837.3,108.6 850.8,155 866.2,115.6 870.2,88.5 			"/>
			<polygon class="st16" points="849.7,51 842.1,94.9 891.1,87.4 			"/>
			<path class="st35" d="M763.5,78.7c7.9-24,13.5-47.6,15.3-70.7l49.8-23.4l50.7,23.5c3.4,25.3,8.6,48.7,15.1,70.6
				c-36.9,34.9-52.6,84.7-61.1,139.5h-2.3V97.1h-4v121.6h-2.3C813.2,153.2,795.3,101.1,763.5,78.7L763.5,78.7z"/>
		</g>
		<g>
			<polygon class="st2" points="860.1,-48.7 829.7,-29.8 831.2,-47 			"/>
			<polygon class="st5" points="829.7,-26.9 846.4,-21.6 857.9,-48 827.7,-30.4 			"/>
			<path class="st8" d="M920.2-55.1l13.7,5.4L917-22.6l-63.3-24.7C853.7-47.3,920.2-55.1,920.2-55.1z"/>
			<polygon class="st9" points="884.1,-70.9 858.3,-58.8 854.9,-46.4 932.8,-49.7 886.6,-72.6 			"/>
			<polygon class="st10" points="846.7,-24 831.5,14.3 872.1,19.4 			"/>
			<polygon class="st11" points="827.7,-16.4 846.8,-22.3 822.4,12.8 			"/>
			<polygon class="st12" points="840,48.5 845,44.7 850.6,64.1 			"/>
			<polygon class="st13" points="828.9,-16.1 845.7,-21.8 830.3,-26.7 			"/>
			<polygon class="st11" points="829.7,13.5 835.8,14 845.2,46.1 838.9,49.9 818.2,25 			"/>
			<polygon class="st14" points="874.2,18.1 834.6,12.6 844.1,46.8 879.7,23.6 			"/>
			<polygon class="st11" points="883.7,53 844.4,46.1 877.3,25.2 884.1,39.8 			"/>
			<polygon class="st15" points="845.2,46.1 850.8,65.7 857.1,80.1 894.7,54.3 			"/>
			<polygon class="st16" points="845.7,-21.8 831.8,14.4 819,24.4 821.7,11.7 			"/>
			<polygon class="st13" points="883.6,61.2 856.2,80.5 884.1,102.1 			"/>
			<polygon class="st11" points="889.3,37.4 894.6,55.9 885.1,55.1 884.5,37.9 			"/>
			<polygon class="st15" points="885.7,52.7 895.3,54.4 885.3,60.7 			"/>
			<polygon class="st14" points="889.7,38.9 893.8,54.4 922.9,35.2 897.7,39.1 892.3,35.1 			"/>
			<polygon class="st18" points="885.3,100.5 903.2,113.1 901,122.4 884.5,124.5 			"/>
			<polygon class="st18" points="870.1,126.8 884.1,125.1 884.1,101.1 857.5,80.6 			"/>
			<polygon class="st12" points="897.3,122.2 894.2,135 885.4,141 885.1,124 			"/>
			<polygon class="st12" points="870.9,126 882.6,125.3 882.6,143.6 874.8,149.8 			"/>
			<polygon class="st19" points="895.3,133.6 884.5,141.4 885.6,163.7 892.7,165.1 			"/>
			<polygon class="st19" points="883.7,142.6 875.1,149.3 878.2,161.3 883.7,162.9 			"/>
			<polygon class="st6" points="845.2,-23.1 872.1,19.4 906.3,-2.7 			"/>
			<path class="st10" d="M906.3-2.7l-60.5-19.1l10.5-24.7L906.3-2.7L906.3-2.7z"/>
			<polygon class="st1" points="852,-48.7 906.3,-2.7 920.5,-28.1 			"/>
			<polygon class="st7" points="905.7,-3.3 897.7,39.4 871.8,18.8 			"/>
			<polygon class="st12" points="831.5,-45.2 856.2,-46.5 872.5,-66.6 829.7,-48 			"/>
			<polygon class="st20" points="894.2,54.6 885.1,60.9 885.8,102.1 901.4,113.8 905.5,96.9 			"/>
			<polygon class="st21" points="922.8,34.6 892.9,53 906.3,99.4 921.7,60 925.8,32.9 			"/>
			<polygon class="st16" points="905.3,-4.5 897.7,39.4 946.6,31.9 			"/>
			<path class="st35" d="M819,23.2c7.9-24,13.5-47.6,15.3-70.7l49.8-23.4l50.7,23.5c3.4,25.3,8.6,48.7,15.1,70.6
				c-36.9,34.9-52.6,84.7-61.1,139.5h-2.3V41.5h-4v121.6h-2.3C868.8,97.6,850.8,45.5,819,23.2L819,23.2z"/>
		</g>
	</g>
</g>
</svg>
